<svg id="Layer_1" enable-background="new 0 0 512 512" style="fill: #fff" height="512" viewBox="0 0 512 512" width="512" xmlns="http://www.w3.org/2000/svg"><g><circle cx="191.733" cy="304.2" r="15"/><circle cx="256" cy="368.467" r="15"/><circle cx="63.2" cy="304.2" r="15"/><circle cx="127.467" cy="368.467" r="15"/><ellipse cx="320.267" cy="304.2" rx="15" ry="15" transform="matrix(.987 -.16 .16 .987 -44.592 55.229)"/><circle cx="448.8" cy="304.2" r="15"/><circle cx="384.533" cy="368.467" r="15"/><circle cx="191.733" cy="432.733" r="15"/><circle cx="256" cy="497" r="15"/><circle cx="63.2" cy="432.733" r="15"/><circle cx="127.467" cy="497" r="15"/><ellipse cx="320.267" cy="432.733" rx="15" ry="15" transform="matrix(.987 -.16 .16 .987 -65.181 56.889)"/><circle cx="448.8" cy="432.733" r="15"/><circle cx="384.533" cy="497" r="15"/><path d="m410.931 34.423c-18.041 0-35.752 4.877-51.185 13.934-25.626-30.525-63.4-48.357-103.746-48.357s-78.12 17.832-103.746 48.357c-15.432-9.057-33.144-13.934-51.185-13.934-55.73 0-101.069 45.343-101.069 101.077 0 55.729 45.339 101.069 101.069 101.069 18.041 0 35.751-4.876 51.184-13.933 25.624 30.53 63.399 48.364 103.747 48.364s78.123-17.834 103.748-48.364c15.432 9.057 33.143 13.933 51.183 13.933 55.729 0 101.069-45.34 101.069-101.069 0-55.734-45.34-101.077-101.069-101.077z"/></g></svg>