<svg id="Capa_1" enable-background="new 0 0 512 512" height="512" style="fill: #fff" viewBox="0 0 512 512" width="512" xmlns="http://www.w3.org/2000/svg"><g><g><path d="m497 155.563h-36.214l-22.179-22.179c.682-1.423 1.285-2.889 1.818-4.389h37.58c8.284 0 15-6.716 15-15s-6.716-15-15-15h-37.58c-.532-1.5-1.135-2.967-1.818-4.39l22.179-22.179h36.214c8.284 0 15-6.716 15-15s-6.716-15-15-15h-27.427v-27.426c0-8.284-6.716-15-15-15s-15 6.716-15 15v36.213l-22.179 22.179c-1.422-.682-2.889-1.285-4.389-1.817v-37.58c0-8.284-6.716-15-15-15s-15 6.716-15 15v37.581c-1.5.532-2.967 1.135-4.389 1.817l-22.179-22.179v-36.214c0-8.284-6.716-15-15-15s-15 6.716-15 15v27.426h-27.427c-8.284 0-15 6.716-15 15s6.716 15 15 15h36.214l22.179 22.179c-.682 1.423-1.286 2.889-1.818 4.39h-37.58c-8.284 0-15 6.716-15 15s6.716 15 15 15h37.58c.532 1.5 1.135 2.967 1.818 4.389l-22.179 22.179h-36.214c-8.284 0-15 6.716-15 15s6.716 15 15 15h27.427v27.426c0 8.284 6.716 15 15 15s15-6.716 15-15v-36.213l22.179-22.179c1.423.682 2.889 1.285 4.389 1.818v37.58c0 8.284 6.716 15 15 15s15-6.716 15-15v-37.58c1.5-.532 2.967-1.135 4.389-1.818l22.179 22.179v36.213c0 8.284 6.716 15 15 15s15-6.716 15-15v-27.426h27.427c8.284 0 15-6.716 15-15s-6.716-15-15-15z"/></g><g><path d="m152.487 353.03c-4.634-2.682-7.487-7.629-7.487-12.983v-48.047h-30v48.047c0 5.354-2.854 10.301-7.487 12.983-13.886 8.036-22.513 22.969-22.513 38.97 0 24.813 20.187 45 45 45s45-20.187 45-45c0-16.001-8.627-30.934-22.513-38.97z"/><path d="m220 312.659v-222.659c0-49.706-40.294-90-90-90s-90 40.294-90 90v2h-15c-8.284 0-15 6.716-15 15s6.716 15 15 15h15v30h-25c-8.284 0-15 6.716-15 15s6.716 15 15 15h25v30h-15c-8.284 0-15 6.716-15 15s6.716 15 15 15h15v30h-25c-8.284 0-15 6.716-15 15s6.716 15 15 15h25v10.659c-19.109 21.696-30 49.84-30 79.341 0 66.168 53.832 120 120 120s120-53.832 120-120c0-29.501-10.891-57.645-30-79.341zm-90 154.341c-41.355 0-75-33.645-75-75 0-23.663 11.304-45.915 30-59.979v-242.021c0-24.813 20.187-45 45-45s45 20.187 45 45v242.021c18.696 14.064 30 36.316 30 59.979 0 41.355-33.645 75-75 75z"/><path d="m145 90c0-8.271-6.729-15-15-15s-15 6.729-15 15v172h30z"/></g></g></svg>